<?xml version="1.0" encoding="UTF-8" standalone="no"?>
<svg
   xmlns:dc="http://purl.org/dc/elements/1.1/"
   xmlns:cc="http://creativecommons.org/ns#"
   xmlns:rdf="http://www.w3.org/1999/02/22-rdf-syntax-ns#"
   xmlns:svg="http://www.w3.org/2000/svg"
   xmlns="http://www.w3.org/2000/svg"
   xmlns:sodipodi="http://sodipodi.sourceforge.net/DTD/sodipodi-0.dtd"
   xmlns:inkscape="http://www.inkscape.org/namespaces/inkscape"
   aria-hidden="true"
   focusable="false"
   data-prefix="fas"
   data-icon="lock-open"
   class="svg-inline--fa fa-lock-open fa-w-18"
   role="img"
   viewBox="0 0 576 576"
   version="1.1"
   id="svg4"
   sodipodi:docname="lock-open-solid-dark-green.svg"
   width="576"
   height="576"
   inkscape:version="0.92.3 (2405546, 2018-03-11)">
  <metadata
     id="metadata10">
    <rdf:RDF>
      <cc:Work
         rdf:about="">
        <dc:format>image/svg+xml</dc:format>
        <dc:type
           rdf:resource="http://purl.org/dc/dcmitype/StillImage" />
        <dc:title></dc:title>
      </cc:Work>
    </rdf:RDF>
  </metadata>
  <defs
     id="defs8" />
  <sodipodi:namedview
     pagecolor="#ffffff"
     bordercolor="#666666"
     borderopacity="1"
     objecttolerance="10"
     gridtolerance="10"
     guidetolerance="10"
     inkscape:pageopacity="0"
     inkscape:pageshadow="2"
     inkscape:window-width="1691"
     inkscape:window-height="1041"
     id="namedview6"
     showgrid="false"
     inkscape:snap-bbox="true"
     inkscape:snap-page="true"
     inkscape:bbox-paths="true"
     inkscape:bbox-nodes="true"
     inkscape:snap-bbox-edge-midpoints="true"
     inkscape:snap-bbox-midpoints="true"
     inkscape:object-paths="true"
     inkscape:snap-intersection-paths="true"
     inkscape:snap-smooth-nodes="true"
     inkscape:snap-midpoints="true"
     inkscape:snap-object-midpoints="true"
     inkscape:snap-center="true"
     inkscape:zoom="0.65186406"
     inkscape:cx="312.35996"
     inkscape:cy="209.83558"
     inkscape:window-x="141"
     inkscape:window-y="0"
     inkscape:window-maximized="0"
     inkscape:current-layer="svg4" />
  <path
     d="M 423.5,0 C 339.5,0.3 272,69.5 272,153.5 V 224 H 48 C 21.5,224 0.15879655,245.50048 0,272 l -1.5340622,256 c -0.1587965,26.49952 21.5000002,48 48.0000002,48 H 398.46594 c 26.5,0 47.8412,-21.50048 48,-48 L 448,272 c 0.1588,-26.49952 -21.5,-48 -48,-48 h -48 v -71.1 c 0,-39.6 31.7,-72.5 71.3,-72.9 40,-0.4 72.7,32.1 72.7,72 v 80 c 0,13.3 10.7,24 24,24 h 32 c 13.3,0 24,-10.7 24,-24 V 152 C 576,68 507.5,-0.3 423.5,0 Z"
     id="path2"
     inkscape:connector-curvature="0"
     style="fill:#04801f;fill-opacity:1"
     sodipodi:nodetypes="sscsssssssscscsssssss" />
</svg>
