<?xml version="1.0" encoding="utf-8"?>
<!-- Generator: Adobe Illustrator 26.0.3, SVG Export Plug-In . SVG Version: 6.00 Build 0)  -->
<svg version="1.1"
	 id="Layer_1" inkscape:version="0.92.4 (5da689c313, 2019-01-14)" xmlns:cc="http://creativecommons.org/ns#" xmlns:dc="http://purl.org/dc/elements/1.1/" xmlns:inkscape="http://www.inkscape.org/namespaces/inkscape" xmlns:rdf="http://www.w3.org/1999/02/22-rdf-syntax-ns#" xmlns:sodipodi="http://sodipodi.sourceforge.net/DTD/sodipodi-0.dtd" xmlns:svg="http://www.w3.org/2000/svg"
	 xmlns="http://www.w3.org/2000/svg" xmlns:xlink="http://www.w3.org/1999/xlink" x="0px" y="0px" viewBox="0 0 465.7 209.1"
	 style="enable-background:new 0 0 465.7 209.1;" xml:space="preserve">
<style type="text/css">
	.st0{fill:#DCE0DF;}
	.st1{fill:#A7A6A4;}
</style>
<sodipodi:namedview  bordercolor="#666666" borderopacity="1" gridtolerance="10" guidetolerance="10" id="namedview48" inkscape:current-layer="Layer_1" inkscape:cx="190.23858" inkscape:cy="104.53" inkscape:pageopacity="0" inkscape:pageshadow="2" inkscape:window-height="1017" inkscape:window-maximized="1" inkscape:window-width="1920" inkscape:window-x="1912" inkscape:window-y="-8" inkscape:zoom="2.8516824" objecttolerance="10" pagecolor="#ffffff" showgrid="false">
	</sodipodi:namedview>
<g>
	<path class="st0" d="M17.6,7.2h26.5v32.5L71.9,7.2h35.3L75.9,39.6l32.8,53.5H75.9L57.8,57.8L44.1,72.1v21H17.6V7.2z"/>
	<path class="st0" d="M152.1,7.2h26.6v85.9h-26.6V7.2z"/>
	<path class="st0" d="M231.5,7.2h24.8l32.3,47.5V7.2h25v85.9h-25l-32.2-47.2v47.2h-25V7.2z"/>
	<path class="st0" d="M361.5,50.2c0-14,3.9-24.9,11.7-32.8c7.8-7.8,18.7-11.7,32.6-11.7c14.3,0,25.3,3.8,33,11.5
		s11.6,18.4,11.6,32.3c0,10-1.7,18.3-5.1,24.7c-3.4,6.4-8.3,11.4-14.6,15s-14.3,5.4-23.9,5.4c-9.7,0-17.7-1.5-24.1-4.6
		c-6.3-3.1-11.5-8-15.4-14.6C363.5,68.6,361.5,60.2,361.5,50.2z M388.1,50.3c0,8.7,1.6,14.9,4.8,18.7c3.2,3.8,7.6,5.7,13.2,5.7
		c5.7,0,10.1-1.9,13.2-5.6c3.1-3.7,4.7-10.4,4.7-20c0-8.1-1.6-14-4.9-17.7c-3.3-3.7-7.7-5.6-13.3-5.6c-5.4,0-9.6,1.9-12.9,5.7
		C389.7,35.3,388.1,41.6,388.1,50.3z"/>
</g>
<g>
	<path class="st1" d="M56.8,104.9h34.9l13.5,52.3l13.4-52.3h34.9v85.9h-21.7v-65.5L115,190.7H95.3l-16.7-65.5v65.5H56.8V104.9z"/>
	<path class="st1" d="M259.2,176.6h-30.1l-4.2,14.2h-27.1l32.3-85.9h29l32.3,85.9h-27.8L259.2,176.6z M253.7,158l-9.5-30.9
		l-9.4,30.9H253.7z"/>
	<path class="st1" d="M335.6,104.9h44.1c9.6,0,16.8,2.3,21.6,6.9c4.8,4.6,7.2,11.1,7.2,19.5c0,8.7-2.6,15.5-7.8,20.3
		c-5.2,4.9-13.2,7.3-23.9,7.3h-14.5v31.9h-26.7V104.9z M362.3,141.5h6.5c5.1,0,8.7-0.9,10.8-2.7c2.1-1.8,3.1-4.1,3.1-6.8
		c0-2.7-0.9-5-2.7-6.9c-1.8-1.9-5.2-2.8-10.1-2.8h-7.6V141.5z"/>
</g>
</svg>
