<?xml version="1.0" encoding="UTF-8" standalone="no"?>
<svg
   xmlns:dc="http://purl.org/dc/elements/1.1/"
   xmlns:cc="http://creativecommons.org/ns#"
   xmlns:rdf="http://www.w3.org/1999/02/22-rdf-syntax-ns#"
   xmlns:svg="http://www.w3.org/2000/svg"
   xmlns="http://www.w3.org/2000/svg"
   xmlns:sodipodi="http://sodipodi.sourceforge.net/DTD/sodipodi-0.dtd"
   xmlns:inkscape="http://www.inkscape.org/namespaces/inkscape"
   id="Layer_1"
   data-name="Layer 1"
   viewBox="0 0 511.98 511.98"
   version="1.1"
   sodipodi:docname="pencil-alt-solid-dark.svg"
   inkscape:version="0.92.4 (5da689c313, 2019-01-14)">
  <metadata
     id="metadata13">
    <rdf:RDF>
      <cc:Work
         rdf:about="">
        <dc:format>image/svg+xml</dc:format>
        <dc:type
           rdf:resource="http://purl.org/dc/dcmitype/StillImage" />
        <dc:title>pencil-alt-solid</dc:title>
      </cc:Work>
    </rdf:RDF>
  </metadata>
  <sodipodi:namedview
     pagecolor="#ffffff"
     bordercolor="#666666"
     borderopacity="1"
     objecttolerance="10"
     gridtolerance="10"
     guidetolerance="10"
     inkscape:pageopacity="0"
     inkscape:pageshadow="2"
     inkscape:window-width="1920"
     inkscape:window-height="1017"
     id="namedview11"
     showgrid="false"
     inkscape:zoom="0.4609555"
     inkscape:cx="255.99001"
     inkscape:cy="255.99001"
     inkscape:window-x="-8"
     inkscape:window-y="1072"
     inkscape:window-maximized="1"
     inkscape:current-layer="Layer_1" />
  <defs
     id="defs4">
    <style
       id="style2">.cls-1{fill:#fff;}</style>
  </defs>
  <title
     id="title6">pencil-alt-solid</title>
  <path
     class="cls-1"
     d="M497.9,142.1l-46.1,46.1a12,12,0,0,1-17,0l-111-111a12,12,0,0,1,0-17l46.1-46.1a48.1,48.1,0,0,1,67.9,0l60.1,60.1A47.92,47.92,0,0,1,497.9,142.1ZM284.2,99.8,21.6,362.4.4,483.9a24,24,0,0,0,27.8,27.8l121.5-21.3L412.3,227.8a12,12,0,0,0,0-17l-111-111a12.13,12.13,0,0,0-17.1,0ZM124.1,339.9a13.94,13.94,0,0,1,0-19.8l154-154a14,14,0,0,1,19.8,19.8l-154,154a13.94,13.94,0,0,1-19.8,0ZM88,424h48v36.3L71.5,471.6,40.4,440.5,51.7,376H88Z"
     transform="translate(-0.02 -0.08)"
     id="path8"
     style="fill:#000000;fill-opacity:1" />
</svg>
