<?xml version="1.0" encoding="UTF-8" standalone="no"?>
<svg
   xmlns:dc="http://purl.org/dc/elements/1.1/"
   xmlns:cc="http://creativecommons.org/ns#"
   xmlns:rdf="http://www.w3.org/1999/02/22-rdf-syntax-ns#"
   xmlns:svg="http://www.w3.org/2000/svg"
   xmlns="http://www.w3.org/2000/svg"
   xmlns:sodipodi="http://sodipodi.sourceforge.net/DTD/sodipodi-0.dtd"
   xmlns:inkscape="http://www.inkscape.org/namespaces/inkscape"
   id="Layer_1"
   data-name="Layer 1"
   viewBox="0 0 448 448"
   version="1.1"
   sodipodi:docname="plus-solid-black.svg"
   inkscape:version="0.92.3 (2405546, 2018-03-11)">
  <metadata
     id="metadata839">
    <rdf:RDF>
      <cc:Work
         rdf:about="">
        <dc:format>image/svg+xml</dc:format>
        <dc:type
           rdf:resource="http://purl.org/dc/dcmitype/StillImage" />
        <dc:title>plus-solid</dc:title>
      </cc:Work>
    </rdf:RDF>
  </metadata>
  <sodipodi:namedview
     pagecolor="#ffffff"
     bordercolor="#666666"
     borderopacity="1"
     objecttolerance="10"
     gridtolerance="10"
     guidetolerance="10"
     inkscape:pageopacity="0"
     inkscape:pageshadow="2"
     inkscape:window-width="1842"
     inkscape:window-height="1051"
     id="namedview837"
     showgrid="false"
     inkscape:zoom="1.9151786"
     inkscape:cx="224"
     inkscape:cy="224"
     inkscape:window-x="-9"
     inkscape:window-y="-9"
     inkscape:window-maximized="1"
     inkscape:current-layer="Layer_1" />
  <defs
     id="defs830">
    <style
       id="style828">.cls-1{fill:#fff;}</style>
  </defs>
  <title
     id="title832">plus-solid</title>
  <path
     class="cls-1"
     d="M416,208H272V64a32,32,0,0,0-32-32H208a32,32,0,0,0-32,32V208H32A32,32,0,0,0,0,240v32a32,32,0,0,0,32,32H176V448a32,32,0,0,0,32,32h32a32,32,0,0,0,32-32V304H416a32,32,0,0,0,32-32V240A32,32,0,0,0,416,208Z"
     transform="translate(0 -32)"
     id="path834"
     style="fill:#030303;fill-opacity:1" />
</svg>
