<?xml version="1.0" encoding="UTF-8" standalone="no"?>
<svg
   xmlns:dc="http://purl.org/dc/elements/1.1/"
   xmlns:cc="http://creativecommons.org/ns#"
   xmlns:rdf="http://www.w3.org/1999/02/22-rdf-syntax-ns#"
   xmlns:svg="http://www.w3.org/2000/svg"
   xmlns="http://www.w3.org/2000/svg"
   xmlns:sodipodi="http://sodipodi.sourceforge.net/DTD/sodipodi-0.dtd"
   xmlns:inkscape="http://www.inkscape.org/namespaces/inkscape"
   id="Layer_1"
   data-name="Layer 1"
   viewBox="0 0 448 512"
   version="1.1"
   sodipodi:docname="trash-alt-solid-red.svg"
   inkscape:version="0.92.4 (5da689c313, 2019-01-14)">
  <metadata
     id="metadata13">
    <rdf:RDF>
      <cc:Work
         rdf:about="">
        <dc:format>image/svg+xml</dc:format>
        <dc:type
           rdf:resource="http://purl.org/dc/dcmitype/StillImage" />
        <dc:title>trash-alt-solid</dc:title>
      </cc:Work>
    </rdf:RDF>
  </metadata>
  <sodipodi:namedview
     pagecolor="#ffffff"
     bordercolor="#666666"
     borderopacity="1"
     objecttolerance="10"
     gridtolerance="10"
     guidetolerance="10"
     inkscape:pageopacity="0"
     inkscape:pageshadow="2"
     inkscape:window-width="1920"
     inkscape:window-height="1137"
     id="namedview11"
     showgrid="false"
     inkscape:zoom="0.4609375"
     inkscape:cx="224"
     inkscape:cy="256"
     inkscape:window-x="-8"
     inkscape:window-y="-8"
     inkscape:window-maximized="1"
     inkscape:current-layer="Layer_1" />
  <defs
     id="defs4">
    <style
       id="style2">.cls-1{fill:#fff;}</style>
  </defs>
  <title
     id="title6">trash-alt-solid</title>
  <path
     class="cls-1"
     d="M32,464a48,48,0,0,0,48,48H368a48,48,0,0,0,48-48h0V128H32ZM304,208a16,16,0,0,1,32,0V432a16,16,0,0,1-32,0Zm-96,0a16,16,0,0,1,32,0V432a16,16,0,0,1-32,0Zm-96,0a16,16,0,0,1,32,0V432a16,16,0,0,1-32,0ZM432,32H312l-9.4-18.7A24,24,0,0,0,281.1,0H166.8a23.72,23.72,0,0,0-21.4,13.3L136,32H16A16,16,0,0,0,0,48V80A16,16,0,0,0,16,96H432a16,16,0,0,0,16-16V48A16,16,0,0,0,432,32Z"
     transform="translate(0 0)"
     id="path8"
     style="fill:#ca2639;fill-opacity:1" />
</svg>
